<svg width="26" height="26" viewBox="0 0 26 26" fill="none" xmlns="http://www.w3.org/2000/svg">
<path d="M19.857 13.1207C19.8455 11.1534 20.7368 9.6708 22.5367 8.57757C21.53 7.13532 20.007 6.34208 17.9994 6.1892C16.0985 6.03921 14.0188 7.29685 13.2573 7.29685C12.4525 7.29685 10.6122 6.24112 9.16418 6.24112C6.17584 6.28727 3 8.62372 3 13.3774C3 14.7821 3.25672 16.233 3.77016 17.7272C4.45667 19.6944 6.93158 24.5144 9.51321 24.4366C10.8632 24.4048 11.8179 23.4789 13.5746 23.4789C15.2793 23.4789 16.162 24.4366 17.6677 24.4366C20.2724 24.3991 22.5108 20.0175 23.1627 18.0445C19.6695 16.3975 19.857 13.2216 19.857 13.1207ZM16.8254 4.32293C18.2879 2.58645 18.1552 1.00575 18.1119 0.4375C16.8197 0.512497 15.3255 1.31727 14.4746 2.30666C13.5371 3.36816 12.9861 4.6806 13.1044 6.16035C14.5005 6.26708 15.7755 5.54884 16.8254 4.32293Z" fill="black"/>
</svg>
