<svg width="36" height="31" viewBox="0 0 36 31" fill="none" xmlns="http://www.w3.org/2000/svg">
<path d="M27.4264 6.66743C27.4326 4.85311 26.233 3.84629 24.8632 3.92358C23.6841 3.9907 23.2391 4.52157 22.7511 5.36364C21.9965 6.66539 20.7518 7.55425 18.9965 8.23767C17.356 8.87634 14.5652 9.35636 11.7825 9.30754C10.302 9.2811 7.58705 9.10618 5.60824 10.2432C3.80168 11.2805 2.92813 12.9606 2.93018 14.7566C2.93018 16.6075 4.01904 18.7635 6.3526 19.4917C6.45513 19.5243 6.55151 19.5507 6.64788 19.5792C6.64378 19.5792 6.63763 19.5771 6.63763 19.5771C6.63763 19.5771 7.5891 20.6796 7.9254 21.9691C8.22273 23.1122 8.38268 24.6479 8.42779 25.3333C8.52006 26.688 9.39156 27.7334 10.2938 28.128C11.2555 28.5491 12.9227 28.5735 13.8885 28.2419C14.6513 27.9795 15.0963 27.4792 15.2419 26.8222C15.3731 26.2323 15.2849 25.3943 14.6841 24.8736C14.1633 24.4241 13.6219 24.593 13.3492 24.2736C13.1605 24.0519 13.261 23.46 13.2015 22.6993C13.8577 22.6281 14.6431 22.3027 15.0163 21.9427C15.4674 21.5074 15.7422 21.0518 15.9124 20.4029C16.9931 20.6755 17.9732 21.0274 19.0088 21.4118C20.5447 21.9834 22.0785 23.0044 22.6691 24.115V24.1475H22.6875C23.1776 25.0974 23.7866 25.4228 24.976 25.4269C26.4257 25.431 27.4305 24.5604 27.4305 22.803C27.4305 21.6518 27.4244 17.4089 27.4244 14.663C27.4244 11.9171 27.4203 8.89668 27.4264 6.66743ZM4.3984 14.7261C4.4148 13.4874 5.17967 11.9375 6.44488 11.2968C7.7593 10.6296 9.65609 10.6744 10.9356 10.6764V18.5073C9.34235 18.5134 8.70462 18.7025 7.01289 18.1757C5.23093 17.6164 4.37994 16.1397 4.3984 14.7261ZM12.9493 25.5428C13.2549 25.614 13.6404 25.8967 13.6055 26.3524C13.5624 26.8853 13.1503 27.052 12.6909 27.1171C12.1721 27.1883 11.3683 26.9727 10.8885 26.7144C10.4374 26.4703 9.82013 25.9049 9.74426 25.1482C9.7012 24.7292 9.46948 22.917 9.35055 22.2071C9.21521 21.3976 8.6595 20.1121 8.54057 19.9087C9.37106 19.9839 10.017 19.927 10.989 19.9087C11.2986 20.3765 11.5959 21.7779 11.6841 22.3108C11.8318 23.1936 11.7231 24.656 12.0471 25.0323C12.3239 25.3557 12.6069 25.4655 12.9493 25.5428ZM14.1366 21.1392C13.7757 21.4118 13.2713 21.5379 13.0026 21.5542C12.857 20.9257 12.693 20.4274 12.4777 19.9107C13.2446 19.9331 14.1633 20.049 14.7395 20.1487C14.6985 20.3704 14.4606 20.8952 14.1366 21.1392ZM22.1892 21.5786C22.1708 21.5623 22.1564 21.544 22.138 21.5277C21.1168 20.6369 19.5501 20.0043 17.4668 19.3798C15.6417 18.8327 14.1981 18.6232 12.3362 18.5703V10.5666C14.0013 10.4954 15.9534 10.355 17.8338 9.90554C19.665 9.46823 20.4114 9.22212 22.138 8.21122C22.1626 8.19699 22.1728 8.16851 22.1892 8.14614V21.5786ZM26.0402 21.9386C26.0443 23.2627 25.7737 23.8302 24.9391 23.8302C24.0717 23.8302 23.68 23.3319 23.68 21.9386C23.68 21.9386 23.68 8.7604 23.68 7.44848C23.68 6.283 24.0409 5.62196 24.8611 5.62196C25.7019 5.62196 26.0402 6.32979 26.0382 7.44848C26.0361 9.51908 26.0484 12.5945 26.0382 14.7546C26.032 17.0062 26.0382 20.9928 26.0402 21.9386Z" fill="#71B6BC"/>
<path d="M31.9277 15.914H28.7473C28.3638 15.914 28.0542 15.6049 28.0542 15.2265C28.0542 14.8462 28.3659 14.5391 28.7473 14.5391H31.9277C32.3112 14.5391 32.6208 14.8482 32.6208 15.2265C32.6208 15.6049 32.3112 15.914 31.9277 15.914Z" fill="#71B6BC"/>
<path d="M31.9522 6.79576L29.7048 9.02501C29.4341 9.2935 28.9953 9.2935 28.7225 9.02501C28.4519 8.75653 28.4519 8.32125 28.7225 8.05073L30.97 5.82148C31.2406 5.553 31.6795 5.553 31.9522 5.82148C32.2229 6.08997 32.2229 6.52728 31.9522 6.79576Z" fill="#71B6BC"/>
<path d="M31.9522 23.6533L29.7048 21.424C29.4341 21.1555 28.9953 21.1555 28.7225 21.424C28.4519 21.6925 28.4519 22.1278 28.7225 22.3983L30.97 24.6276C31.2406 24.896 31.6795 24.896 31.9522 24.6276C32.2229 24.3591 32.2229 23.9238 31.9522 23.6533Z" fill="#71B6BC"/>
</svg>
