<svg width="24" height="28" viewBox="0 0 24 28" fill="none" xmlns="http://www.w3.org/2000/svg">
<path d="M7.5 3.50001C7.10218 3.50001 6.72064 3.65805 6.43934 3.93935C6.15804 4.22066 6 4.60219 6 5.00001C6 5.39784 6.15804 5.77937 6.43934 6.06067C6.72064 6.34198 7.10218 6.50001 7.5 6.50001C7.89782 6.50001 8.27936 6.34198 8.56066 6.06067C8.84196 5.77937 9 5.39784 9 5.00001C9 4.60219 8.84196 4.22066 8.56066 3.93935C8.27936 3.65805 7.89782 3.50001 7.5 3.50001ZM3.255 3.50001C3.5649 2.62171 4.13961 1.86116 4.8999 1.3232C5.66019 0.785232 6.56863 0.496338 7.5 0.496338C8.43137 0.496338 9.33981 0.785232 10.1001 1.3232C10.8604 1.86116 11.4351 2.62171 11.745 3.50001H22.5C22.8978 3.50001 23.2794 3.65805 23.5607 3.93935C23.842 4.22066 24 4.60219 24 5.00001C24 5.39784 23.842 5.77937 23.5607 6.06067C23.2794 6.34198 22.8978 6.50001 22.5 6.50001H11.745C11.4351 7.37831 10.8604 8.13886 10.1001 8.67683C9.33981 9.2148 8.43137 9.50369 7.5 9.50369C6.56863 9.50369 5.66019 9.2148 4.8999 8.67683C4.13961 8.13886 3.5649 7.37831 3.255 6.50001H1.5C1.10218 6.50001 0.720645 6.34198 0.43934 6.06067C0.158036 5.77937 0 5.39784 0 5.00001C0 4.60219 0.158036 4.22066 0.43934 3.93935C0.720645 3.65805 1.10218 3.50001 1.5 3.50001H3.255ZM16.5 12.5C16.1022 12.5 15.7206 12.658 15.4393 12.9394C15.158 13.2207 15 13.6022 15 14C15 14.3978 15.158 14.7794 15.4393 15.0607C15.7206 15.342 16.1022 15.5 16.5 15.5C16.8978 15.5 17.2794 15.342 17.5607 15.0607C17.842 14.7794 18 14.3978 18 14C18 13.6022 17.842 13.2207 17.5607 12.9394C17.2794 12.658 16.8978 12.5 16.5 12.5ZM12.255 12.5C12.5649 11.6217 13.1396 10.8612 13.8999 10.3232C14.6602 9.78523 15.5686 9.49634 16.5 9.49634C17.4314 9.49634 18.3398 9.78523 19.1001 10.3232C19.8604 10.8612 20.4351 11.6217 20.745 12.5H22.5C22.8978 12.5 23.2794 12.658 23.5607 12.9394C23.842 13.2207 24 13.6022 24 14C24 14.3978 23.842 14.7794 23.5607 15.0607C23.2794 15.342 22.8978 15.5 22.5 15.5H20.745C20.4351 16.3783 19.8604 17.1389 19.1001 17.6768C18.3398 18.2148 17.4314 18.5037 16.5 18.5037C15.5686 18.5037 14.6602 18.2148 13.8999 17.6768C13.1396 17.1389 12.5649 16.3783 12.255 15.5H1.5C1.10218 15.5 0.720645 15.342 0.43934 15.0607C0.158036 14.7794 0 14.3978 0 14C0 13.6022 0.158036 13.2207 0.43934 12.9394C0.720645 12.658 1.10218 12.5 1.5 12.5H12.255ZM7.5 21.5C7.10218 21.5 6.72064 21.658 6.43934 21.9394C6.15804 22.2207 6 22.6022 6 23C6 23.3978 6.15804 23.7794 6.43934 24.0607C6.72064 24.342 7.10218 24.5 7.5 24.5C7.89782 24.5 8.27936 24.342 8.56066 24.0607C8.84196 23.7794 9 23.3978 9 23C9 22.6022 8.84196 22.2207 8.56066 21.9394C8.27936 21.658 7.89782 21.5 7.5 21.5ZM3.255 21.5C3.5649 20.6217 4.13961 19.8612 4.8999 19.3232C5.66019 18.7852 6.56863 18.4963 7.5 18.4963C8.43137 18.4963 9.33981 18.7852 10.1001 19.3232C10.8604 19.8612 11.4351 20.6217 11.745 21.5H22.5C22.8978 21.5 23.2794 21.658 23.5607 21.9394C23.842 22.2207 24 22.6022 24 23C24 23.3978 23.842 23.7794 23.5607 24.0607C23.2794 24.342 22.8978 24.5 22.5 24.5H11.745C11.4351 25.3783 10.8604 26.1389 10.1001 26.6768C9.33981 27.2148 8.43137 27.5037 7.5 27.5037C6.56863 27.5037 5.66019 27.2148 4.8999 26.6768C4.13961 26.1389 3.5649 25.3783 3.255 24.5H1.5C1.10218 24.5 0.720645 24.342 0.43934 24.0607C0.158036 23.7794 0 23.3978 0 23C0 22.6022 0.158036 22.2207 0.43934 21.9394C0.720645 21.658 1.10218 21.5 1.5 21.5H3.255Z" fill="white"/>
</svg>
