<svg width="24" height="24" viewBox="0 0 24 24" fill="none" xmlns="http://www.w3.org/2000/svg">
<path d="M23.7666 9.6498H22.8V9.6H12V14.4H18.7818C17.7924 17.1942 15.1338 19.2 12 19.2C8.0238 19.2 4.8 15.9762 4.8 12C4.8 8.0238 8.0238 4.8 12 4.8C13.8354 4.8 15.5052 5.4924 16.7766 6.6234L20.1708 3.2292C18.0276 1.2318 15.1608 0 12 0C5.373 0 0 5.373 0 12C0 18.627 5.373 24 12 24C18.627 24 24 18.627 24 12C24 11.1954 23.9172 10.41 23.7666 9.6498Z" fill="#FFC107"/>
<path d="M1.38403 6.4146L5.32663 9.306C6.39343 6.6648 8.97703 4.8 12.0004 4.8C13.8358 4.8 15.5056 5.4924 16.777 6.6234L20.1712 3.2292C18.028 1.2318 15.1612 0 12.0004 0C7.39123 0 3.39403 2.6022 1.38403 6.4146Z" fill="#FF3D00"/>
<path d="M12.0004 23.9999C15.1 23.9999 17.9164 22.8136 20.0458 20.8846L16.3318 17.7419C15.0865 18.6889 13.5649 19.2011 12.0004 19.1999C8.87918 19.1999 6.22898 17.2097 5.23058 14.4323L1.31738 17.4472C3.30338 21.3334 7.33658 23.9999 12.0004 23.9999Z" fill="#4CAF50"/>
<path d="M23.7666 9.64978H22.8V9.59998H12V14.4H18.7818C18.3085 15.7298 17.456 16.8919 16.3296 17.7426L16.3314 17.7414L20.0454 20.8842C19.7826 21.123 24 18 24 12C24 11.1954 23.9172 10.41 23.7666 9.64978Z" fill="#1976D2"/>
</svg>
