<svg width="18" height="19" viewBox="0 0 18 19" fill="none" xmlns="http://www.w3.org/2000/svg">
<path fill-rule="evenodd" clip-rule="evenodd" d="M12.5 11.9189H11.71L11.43 11.6489C12.41 10.5089 13 9.02894 13 7.41895C13 3.82895 10.09 0.918945 6.5 0.918945C2.91 0.918945 0 3.82895 0 7.41895C0 11.0089 2.91 13.9189 6.5 13.9189C8.11 13.9189 9.59 13.3289 10.73 12.3489L11 12.6289V13.4189L16 18.4089L17.49 16.9189L12.5 11.9189ZM6.5 11.9189C4.01 11.9189 2 9.90895 2 7.41895C2 4.92895 4.01 2.91895 6.5 2.91895C8.99 2.91895 11 4.92895 11 7.41895C11 9.90895 8.99 11.9189 6.5 11.9189Z" fill="#C4C4C4"/>
</svg>
