<svg width="18" height="20" viewBox="0 0 18 20" fill="none" xmlns="http://www.w3.org/2000/svg">
<path d="M9.44255 0.016875C10.5332 0 11.6175 0.01 12.7007 0C12.7663 1.27562 13.225 2.575 14.1588 3.47688C15.0907 4.40125 16.4088 4.82438 17.6913 4.9675V8.32312C16.4894 8.28375 15.2819 8.03375 14.1913 7.51625C13.7163 7.30125 13.2738 7.02437 12.8407 6.74125C12.835 9.17625 12.8507 11.6081 12.825 14.0331C12.76 15.1981 12.3757 16.3575 11.6982 17.3175C10.6082 18.9156 8.7163 19.9575 6.77317 19.99C5.5813 20.0581 4.39067 19.7331 3.37505 19.1344C1.69192 18.1419 0.507547 16.325 0.335047 14.375C0.313318 13.962 0.309982 13.5483 0.325047 13.135C0.475047 11.5494 1.25942 10.0325 2.47692 9.00062C3.85692 7.79875 5.79005 7.22625 7.60005 7.565C7.61692 8.79938 7.56755 10.0325 7.56755 11.2669C6.74067 10.9994 5.77442 11.0744 5.05192 11.5763C4.52332 11.9245 4.12386 12.4368 3.91505 13.0344C3.74255 13.4569 3.79192 13.9263 3.80192 14.375C4.00005 15.7425 5.31505 16.8919 6.7188 16.7675C7.64942 16.7575 8.5413 16.2175 9.0263 15.4269C9.18317 15.15 9.3588 14.8669 9.36817 14.5413C9.45005 13.0506 9.41755 11.5662 9.42755 10.0756C9.43442 6.71625 9.41755 3.36625 9.44317 0.0175L9.44255 0.016875Z" fill="black"/>
</svg>
